<?xml version="1.0" encoding="UTF-8"?>
<svg version="1.1" xmlns="http://www.w3.org/2000/svg" width="88" height="31">
<path d="M0 0 C29.04 0 58.08 0 88 0 C88 10.23 88 20.46 88 31 C58.96 31 29.92 31 0 31 C0 20.77 0 10.54 0 0 Z " fill="#252E45" transform="translate(0,0)"/>
<path d="M0 0 C0.99 0.33 1.98 0.66 3 1 C3 2.32 3 3.64 3 5 C3.66 5 4.32 5 5 5 C6.14947895 8.55293493 6.0868937 9.79976669 4.5625 13.3125 C3.7890625 14.6428125 3.7890625 14.6428125 3 16 C4.65 16 6.3 16 8 16 C7.855625 15.16855469 7.71125 14.33710938 7.5625 13.48046875 C7.376875 12.39378906 7.19125 11.30710937 7 10.1875 C6.814375 9.10855469 6.62875 8.02960937 6.4375 6.91796875 C6 4 6 4 6 1 C6.99 1 7.98 1 9 1 C9 1.66 9 2.32 9 3 C10.32 3 11.64 3 13 3 C13 4.32 13 5.64 13 7 C14.65 7 16.3 7 18 7 C18 8.98 18 10.96 18 13 C18.99 13.33 19.98 13.66 21 14 C21 12.02 21 10.04 21 8 C22.65 7.67 24.3 7.34 26 7 C26 7.66 26 8.32 26 9 C26.66 9 27.32 9 28 9 C28 8.34 28 7.68 28 7 C29.65 7 31.3 7 33 7 C33 10.96 33 14.92 33 19 C31.515 18.505 31.515 18.505 30 18 C30 18.66 30 19.32 30 20 C30.66 20 31.32 20 32 20 C32 21.65 32 23.3 32 25 C31.360625 24.814375 30.72125 24.62875 30.0625 24.4375 C29.381875 24.293125 28.70125 24.14875 28 24 C27.505 24.495 27.505 24.495 27 25 C24.66702567 25.04092937 22.33294775 25.04241723 20 25 C19.67 23.35 19.34 21.7 19 20 C18.01 20 17.02 20 16 20 C16 20.66 16 21.32 16 22 C16.99 22.33 17.98 22.66 19 23 C18.67 24.98 18.34 26.96 18 29 C17.01 29 16.02 29 15 29 C14.67 28.67 14.34 28.34 14 28 C13.01 28 12.02 28 11 28 C11 27.34 11 26.68 11 26 C8.03 26.495 8.03 26.495 5 27 C6.65 27.33 8.3 27.66 10 28 C10 28.33 10 28.66 10 29 C-5.51 29 -21.02 29 -37 29 C-35.35 27.02 -33.7 25.04 -32 23 C-32 21.68 -32 20.36 -32 19 C-30.7934375 18.87625 -30.7934375 18.87625 -29.5625 18.75 C-25.04065795 17.79803325 -21.15297299 15.98419821 -17 14 C-17.33 12.68 -17.66 11.36 -18 10 C-18.66 10 -19.32 10 -20 10 C-20 10.66 -20 11.32 -20 12 C-21.32 12 -22.64 12 -24 12 C-24.61875 13.2375 -24.61875 13.2375 -25.25 14.5 C-27 17 -27 17 -28.89453125 17.40234375 C-31.0625 17.4375 -31.0625 17.4375 -35 17 C-37 15 -37 15 -37.3125 12.0625 C-37 9 -37 9 -35.875 7.125 C-33.18282457 5.50969474 -31.07846795 5.73800273 -28 6 C-27.34 6.33 -26.68 6.66 -26 7 C-26 7.66 -26 8.32 -26 9 C-25.01 9 -24.02 9 -23 9 C-23 8.34 -23 7.68 -23 7 C-19.2983569 6.05306805 -17.60887535 5.69556233 -14.125 7.4375 C-13.42375 7.953125 -12.7225 8.46875 -12 9 C-12 6.69 -12 4.38 -12 2 C-10.41705218 1.94562393 -8.83355744 1.90703729 -7.25 1.875 C-6.36828125 1.85179687 -5.4865625 1.82859375 -4.578125 1.8046875 C-1.8864142 2.00860498 -0.30095026 2.63448279 2 4 C1.34 2.68 0.68 1.36 0 0 Z " fill="#B6AF8D" transform="translate(52,1)"/>
<path d="M0 0 C0.33 1.65 0.66 3.3 1 5 C-0.98 5 -2.96 5 -5 5 C-4.67 6.65 -4.34 8.3 -4 10 C-2.02 10 -0.04 10 2 10 C2.33 9.34 2.66 8.68 3 8 C3.66 9.98 4.32 11.96 5 14 C7.64 14 10.28 14 13 14 C13.66 12.02 14.32 10.04 15 8 C15.33 8.66 15.66 9.32 16 10 C17.32 10 18.64 10 20 10 C20 9.34 20 8.68 20 8 C20.66 8 21.32 8 22 8 C22.66 9.65 23.32 11.3 24 13 C23.00097656 13.32613281 22.00195312 13.65226562 20.97265625 13.98828125 C19.66906034 14.42906548 18.36568617 14.87050586 17.0625 15.3125 C16.40314453 15.52583984 15.74378906 15.73917969 15.06445312 15.95898438 C13.34313703 16.55041093 11.66668068 17.26863827 10 18 C9.67 18.99 9.34 19.98 9 21 C7.37446717 22.70680947 5.70884005 24.37660195 4 26 C3.67 26.33 3.34 26.66 3 27 C0.64686445 27.07271741 -1.70833668 27.08370868 -4.0625 27.0625 C-5.35285156 27.05347656 -6.64320313 27.04445313 -7.97265625 27.03515625 C-8.97167969 27.02355469 -9.97070312 27.01195313 -11 27 C-11.1484375 24.64453125 -11.1484375 24.64453125 -11 22 C-6.89189189 18 -6.89189189 18 -4 18 C-4 17.34 -4 16.68 -4 16 C-4.928125 15.566875 -4.928125 15.566875 -5.875 15.125 C-8 14 -8 14 -10 12 C-10.57105775 4.80467229 -10.57105775 4.80467229 -8.625 2.0625 C-5.57295516 0.06693222 -3.62335324 -0.0953514 0 0 Z " fill="#446582" transform="translate(12,3)"/>
<path d="M0 0 C16.5 0 33 0 50 0 C49.67 0.99 49.34 1.98 49 3 C49 2.34 49 1.68 49 1 C45.37 1.33 41.74 1.66 38 2 C37.67 3.65 37.34 5.3 37 7 C40.63 7 44.26 7 48 7 C48 10.63 48 14.26 48 18 C47.67 18 47.34 18 47 18 C47 14.7 47 11.4 47 8 C45.35 8 43.7 8 42 8 C42 8.66 42 9.32 42 10 C41.34 10 40.68 10 40 10 C40 9.34 40 8.68 40 8 C38.68 8.33 37.36 8.66 36 9 C35.67 10.98 35.34 12.96 35 15 C33.68 14.67 32.36 14.34 31 14 C31.33 12.02 31.66 10.04 32 8 C30.35 8 28.7 8 27 8 C27 6.68 27 5.36 27 4 C25.68 4 24.36 4 23 4 C23 3.34 23 2.68 23 2 C22.01 2.66 21.02 3.32 20 4 C20.33 4 20.66 4 21 4 C21.33 8.29 21.66 12.58 22 17 C20.02 17.33 18.04 17.66 16 18 C16.495 16.948125 16.99 15.89625 17.5 14.8125 C18.82779788 11.74547391 19.30715006 9.37865064 19 6 C18.34 6 17.68 6 17 6 C16.67 5.01 16.34 4.02 16 3 C16 3.66 16 4.32 16 5 C14.68 4.67 13.36 4.34 12 4 C12 3.01 12 2.02 12 1 C5.565 1.495 5.565 1.495 -1 2 C-0.67 1.34 -0.34 0.68 0 0 Z " fill="#24527A" transform="translate(38,0)"/>
<path d="M0 0 C0.33 0.99 0.66 1.98 1 3 C5.29 3.33 9.58 3.66 14 4 C13.34 5.65 12.68 7.3 12 9 C12.66 9.33 13.32 9.66 14 10 C3.44 10 -7.12 10 -18 10 C-17 7 -17 7 -14.4375 5.5 C-13.633125 5.005 -12.82875 4.51 -12 4 C-12 3.01 -12 2.02 -12 1 C-7.58774263 -0.47075246 -4.51718381 -1.36884358 0 0 Z " fill="#ADBCC9" transform="translate(37,20)"/>
<path d="M0 0 C0.99 0 1.98 0 3 0 C3 0.66 3 1.32 3 2 C4.32 2 5.64 2 7 2 C7 3.32 7 4.64 7 6 C8.65 6 10.3 6 12 6 C12 7.98 12 9.96 12 12 C12.99 12.33 13.98 12.66 15 13 C15.66 11.68 16.32 10.36 17 9 C17.99 9 18.98 9 20 9 C20 10.65 20 12.3 20 14 C20.66 14 21.32 14 22 14 C22.33 12.35 22.66 10.7 23 9 C23.66 9 24.32 9 25 9 C25 10.98 25 12.96 25 15 C22.10450497 15.1954384 19.20891002 15.38161395 16.3125 15.5625 C15.49587891 15.61857422 14.67925781 15.67464844 13.83789062 15.73242188 C9.70485877 15.98341571 6.04175718 16.11127743 2 15 C1.66365624 13.06302033 1.33102835 11.12539514 1 9.1875 C0.814375 8.10855469 0.62875 7.02960937 0.4375 5.91796875 C0 3 0 3 0 0 Z " fill="#A5DAF5" transform="translate(58,2)"/>
<path d="M0 0 C9.24 0 18.48 0 28 0 C27.67 1.65 27.34 3.3 27 5 C23.37 5 19.74 5 16 5 C15.34 6.65 14.68 8.3 14 10 C12.6875 11.875 12.6875 11.875 11 13 C8.3125 12.6875 8.3125 12.6875 6 12 C6 10.35 6 8.7 6 7 C7.98 7 9.96 7 12 7 C11.67 5.68 11.34 4.36 11 3 C6.545 3.495 6.545 3.495 2 4 C2 4.66 2 5.32 2 6 C1.34 6 0.68 6 0 6 C0 4.02 0 2.04 0 0 Z " fill="#031C37" transform="translate(1,1)"/>
<path d="M0 0 C5.39346988 -0.02464849 10.78690725 -0.04283531 16.18041992 -0.05493164 C18.01668875 -0.05997231 19.85295354 -0.06680477 21.68920898 -0.07543945 C24.32276401 -0.08751672 26.95626616 -0.09323081 29.58984375 -0.09765625 C30.41588608 -0.10281754 31.24192841 -0.10797882 32.09300232 -0.11329651 C34.06236368 -0.11349205 36.03161614 -0.06204152 38 0 C38.495 0.495 38.495 0.495 39 1 C40.85287502 1.07226502 42.70833878 1.0838122 44.5625 1.0625 C45.57441406 1.05347656 46.58632813 1.04445312 47.62890625 1.03515625 C48.41136719 1.02355469 49.19382813 1.01195313 50 1 C50 1.66 50 2.32 50 3 C46.7 3 43.4 3 40 3 C40 5.31 40 7.62 40 10 C39.443125 9.855625 38.88625 9.71125 38.3125 9.5625 C33.70663689 8.40516376 33.70663689 8.40516376 29 8 C29 8.66 29 9.32 29 10 C28.01 10 27.02 10 26 10 C26 9.34 26 8.68 26 8 C23.03 8 20.06 8 17 8 C17 7.34 17 6.68 17 6 C17.92232422 5.90912109 17.92232422 5.90912109 18.86328125 5.81640625 C19.67152344 5.73261719 20.47976562 5.64882812 21.3125 5.5625 C22.51326172 5.44068359 22.51326172 5.44068359 23.73828125 5.31640625 C26.16087179 5.04734307 26.16087179 5.04734307 29 4 C29 3.01 29 2.02 29 1 C19.76 1 10.52 1 1 1 C0.67 1.66 0.34 2.32 0 3 C0 2.01 0 1.02 0 0 Z " fill="#244466" transform="translate(0,0)"/>
<path d="M0 0 C0.66 0.33 1.32 0.66 2 1 C2 1.66 2 2.32 2 3 C2.99 3 3.98 3 5 3 C5 2.34 5 1.68 5 1 C7.8125 0.3125 7.8125 0.3125 11 0 C12.875 1.1875 12.875 1.1875 14 3 C14 4.32 14 5.64 14 7 C12.68 6.67 11.36 6.34 10 6 C10 5.34 10 4.68 10 4 C9.34 4 8.68 4 8 4 C8 4.66 8 5.32 8 6 C6.68 6 5.36 6 4 6 C3.5875 6.825 3.175 7.65 2.75 8.5 C1 11 1 11 -0.89453125 11.40234375 C-3.0625 11.4375 -3.0625 11.4375 -7 11 C-9 9 -9 9 -9.3125 6.0625 C-9 3 -9 3 -7.875 1.125 C-5.18282457 -0.49030526 -3.07846795 -0.26199727 0 0 Z " fill="#85CBF8" transform="translate(24,7)"/>
<path d="M0 0 C0.99773437 0.02320312 1.99546875 0.04640625 3.0234375 0.0703125 C4.52777344 0.09738281 4.52777344 0.09738281 6.0625 0.125 C6.83335938 0.14820312 7.60421875 0.17140625 8.3984375 0.1953125 C9.80755846 3.01355442 9.51027303 5.36782532 9.49609375 8.515625 C9.49287109 9.77246094 9.48964844 11.02929688 9.48632812 12.32421875 C9.47794922 13.64292969 9.46957031 14.96164063 9.4609375 16.3203125 C9.45592239 17.66015461 9.45135951 18.9999985 9.44726562 20.33984375 C9.43544845 23.62501907 9.41751251 26.91017131 9.3984375 30.1953125 C3.7884375 30.1953125 -1.8215625 30.1953125 -7.6015625 30.1953125 C-7.6015625 29.8653125 -7.6015625 29.5353125 -7.6015625 29.1953125 C-6.60253906 29.13472656 -5.60351562 29.07414062 -4.57421875 29.01171875 C-3.28386719 28.92792969 -1.99351563 28.84414063 -0.6640625 28.7578125 C0.62371094 28.67660156 1.91148438 28.59539063 3.23828125 28.51171875 C6.25867707 28.54612062 6.25867707 28.54612062 7.3984375 27.1953125 C6.7384375 26.8653125 6.0784375 26.5353125 5.3984375 26.1953125 C5.3984375 24.2153125 5.3984375 22.2353125 5.3984375 20.1953125 C4.7384375 20.1953125 4.0784375 20.1953125 3.3984375 20.1953125 C3.3984375 19.5353125 3.3984375 18.8753125 3.3984375 18.1953125 C4.3884375 17.8653125 5.3784375 17.5353125 6.3984375 17.1953125 C6.7284375 13.5653125 7.0584375 9.9353125 7.3984375 6.1953125 C3.7684375 6.1953125 0.1384375 6.1953125 -3.6015625 6.1953125 C-3.9315625 4.8753125 -4.2615625 3.5553125 -4.6015625 2.1953125 C-2.6015625 0.1953125 -2.6015625 0.1953125 0 0 Z " fill="#222A3D" transform="translate(78.6015625,0.8046875)"/>
<path d="M0 0 C0.99 0.33 1.98 0.66 3 1 C3 2.32 3 3.64 3 5 C3.66 5 4.32 5 5 5 C6.09324611 8.37912433 6.0935707 9.76607326 4.75 13.125 C1.90339426 17.80156658 1.90339426 17.80156658 0 19 C-3.1875 18.6875 -3.1875 18.6875 -6 18 C-6 14.04 -6 10.08 -6 6 C-7.32 5.34 -8.64 4.68 -10 4 C-9.01 3.67 -8.02 3.34 -7 3 C-7 3.66 -7 4.32 -7 5 C-6.01 5 -5.02 5 -4 5 C-4 4.34 -4 3.68 -4 3 C-1.03 3.495 -1.03 3.495 2 4 C1.34 2.68 0.68 1.36 0 0 Z " fill="#E3F4FC" transform="translate(52,1)"/>
<path d="M0 0 C3.3 0 6.6 0 10 0 C9.34 0.33 8.68 0.66 8 1 C8 1.66 8 2.32 8 3 C7.01 3 6.02 3 5 3 C5 2.34 5 1.68 5 1 C4.01 1.495 4.01 1.495 3 2 C3.99 2.66 4.98 3.32 6 4 C6.29296875 6.6015625 6.29296875 6.6015625 6.1875 9.625 C6.16042969 10.62789062 6.13335937 11.63078125 6.10546875 12.6640625 C6.07066406 13.43492188 6.03585938 14.20578125 6 15 C5.67 15 5.34 15 5 15 C4.67 12.36 4.34 9.72 4 7 C3.01 6.67 2.02 6.34 1 6 C0.67 8.97 0.34 11.94 0 15 C-0.77085938 15.20496094 -1.54171875 15.40992188 -2.3359375 15.62109375 C-3.84027344 16.02521484 -3.84027344 16.02521484 -5.375 16.4375 C-6.37273438 16.70433594 -7.37046875 16.97117187 -8.3984375 17.24609375 C-11.79503935 18.23039428 -12.72894649 18.65025354 -14.9375 21.5 C-17 24 -17 24 -20 25 C-20.33 25.66 -20.66 26.32 -21 27 C-22.32 26.67 -23.64 26.34 -25 26 C-24.175 25.2575 -23.35 24.515 -22.5 23.75 C-19.55155147 21.12612615 -19.55155147 21.12612615 -20 17 C-18.7934375 16.87625 -18.7934375 16.87625 -17.5625 16.75 C-13.72805881 15.94274922 -10.58025636 14.59556085 -7.05078125 12.9375 C-5 12 -5 12 -2 11 C-2 9.68 -2 8.36 -2 7 C-1.34 7 -0.68 7 0 7 C0 4.69 0 2.38 0 0 Z " fill="#6D8AAF" transform="translate(40,3)"/>
<path d="M0 0 C16.5 0 33 0 50 0 C49.67 0.99 49.34 1.98 49 3 C49 2.34 49 1.68 49 1 C44.72862746 1.10967098 40.45815234 1.2403499 36.1875 1.375 C34.97255859 1.4059375 33.75761719 1.436875 32.50585938 1.46875 C31.34248047 1.50742187 30.17910156 1.54609375 28.98046875 1.5859375 C27.90692139 1.6173584 26.83337402 1.6487793 25.72729492 1.68115234 C22.7839235 1.81592307 22.7839235 1.81592307 20 4 C20.33 4 20.66 4 21 4 C21.33 8.29 21.66 12.58 22 17 C20.02 17.33 18.04 17.66 16 18 C16.495 16.948125 16.99 15.89625 17.5 14.8125 C18.82779788 11.74547391 19.30715006 9.37865064 19 6 C18.34 6 17.68 6 17 6 C16.67 5.01 16.34 4.02 16 3 C16 3.66 16 4.32 16 5 C14.68 4.67 13.36 4.34 12 4 C12 3.01 12 2.02 12 1 C5.565 1.495 5.565 1.495 -1 2 C-0.67 1.34 -0.34 0.68 0 0 Z " fill="#3C4A65" transform="translate(38,0)"/>
<path d="M0 0 C0.33 1.65 0.66 3.3 1 5 C-0.98 5 -2.96 5 -5 5 C-4.67 6.65 -4.34 8.3 -4 10 C-2.35 10 -0.7 10 1 10 C1 11.65 1 13.3 1 15 C-6.28358209 15.35820896 -6.28358209 15.35820896 -9 14 C-10.62052739 10.75894522 -10.56216085 7.54309275 -10 4 C-7.28410304 0.17305429 -4.49162957 -0.11820078 0 0 Z " fill="#5383AC" transform="translate(12,3)"/>
<path d="M0 0 C1.32 0 2.64 0 4 0 C4 0.66 4 1.32 4 2 C4.66 2 5.32 2 6 2 C6 1.34 6 0.68 6 0 C7.65 0 9.3 0 11 0 C11 3.96 11 7.92 11 12 C10.01 11.67 9.02 11.34 8 11 C8 11.66 8 12.32 8 13 C8.66 13 9.32 13 10 13 C10 14.65 10 16.3 10 18 C9.4225 17.835 8.845 17.67 8.25 17.5 C5.73335631 16.85537969 5.73335631 16.85537969 2 17 C2.33 15.35 2.66 13.7 3 12 C4.32 12.33 5.64 12.66 7 13 C7 12.01 7 11.02 7 10 C4.03 10 1.06 10 -2 10 C-2 9.67 -2 9.34 -2 9 C1.63 9 5.26 9 9 9 C9 7.02 9 5.04 9 3 C8.34 3 7.68 3 7 3 C6.67 4.65 6.34 6.3 6 8 C5.34 8 4.68 8 4 8 C4 6.35 4 4.7 4 3 C2.35 3.66 0.7 4.32 -1 5 C-0.67 3.35 -0.34 1.7 0 0 Z " fill="#76A4CD" transform="translate(74,8)"/>
<path d="M0 0 C0.89203125 0.01804687 1.7840625 0.03609375 2.703125 0.0546875 C3.71632813 0.08949219 3.71632813 0.08949219 4.75 0.125 C4.75 0.785 4.75 1.445 4.75 2.125 C5.843125 1.96 6.93625 1.795 8.0625 1.625 C11.36944474 1.17660071 14.42327151 1.125 17.75 1.125 C16.76 2.61 16.76 2.61 15.75 4.125 C16.41 4.455 17.07 4.785 17.75 5.125 C8.18 5.125 -1.39 5.125 -11.25 5.125 C-8.14623405 0.46935108 -5.45845456 -0.14364354 0 0 Z " fill="#D1D3D9" transform="translate(33.25,24.875)"/>
<path d="M0 0 C-0.33 1.98 -0.66 3.96 -1 6 C-1.99 6 -2.98 6 -4 6 C-4.33 5.67 -4.66 5.34 -5 5 C-5.99 5 -6.98 5 -8 5 C-8 4.34 -8 3.68 -8 3 C-9.98 3.33 -11.96 3.66 -14 4 C-12.35 4.33 -10.7 4.66 -9 5 C-9 5.33 -9 5.66 -9 6 C-10.79158489 6.02696365 -12.58328473 6.04637917 -14.375 6.0625 C-15.37273438 6.07410156 -16.37046875 6.08570313 -17.3984375 6.09765625 C-20 6 -20 6 -22 5 C-21.4375 3.125 -21.4375 3.125 -20 1 C-13.53978521 -2.0147669 -6.909581 -0.76888571 0 0 Z " fill="#7978EB" transform="translate(71,24)"/>
<path d="M0 0 C0.33 0.66 0.66 1.32 1 2 C2.32 2 3.64 2 5 2 C5 1.34 5 0.68 5 0 C5.66 0 6.32 0 7 0 C7.66 1.65 8.32 3.3 9 5 C7.50146484 5.48919922 7.50146484 5.48919922 5.97265625 5.98828125 C4.66906034 6.42906548 3.36568617 6.87050586 2.0625 7.3125 C1.0734668 7.63250977 1.0734668 7.63250977 0.06445312 7.95898438 C-1.65686297 8.55041093 -3.33331932 9.26863827 -5 10 C-5.33 10.99 -5.66 11.98 -6 13 C-10.33333333 17.66666667 -10.33333333 17.66666667 -13 19 C-12.690625 18.443125 -12.38125 17.88625 -12.0625 17.3125 C-10.47860666 13.86520273 -10 10.7792414 -10 7 C-7.36 6.67 -4.72 6.34 -2 6 C-1.34 4.02 -0.68 2.04 0 0 Z " fill="#3C74A7" transform="translate(27,11)"/>
<path d="M0 0 C0.33 0 0.66 0 1 0 C1 2.31 1 4.62 1 7 C3.31 7 5.62 7 8 7 C8.33 6.01 8.66 5.02 9 4 C9 4.66 9 5.32 9 6 C9.598125 6.103125 10.19625 6.20625 10.8125 6.3125 C13.28243264 7.08876455 14.32251235 8.07088921 16 10 C12.93466836 11.53266582 9.73245728 11.10276471 6.375 11.0625 C5.66859375 11.05798828 4.9621875 11.05347656 4.234375 11.04882812 C2.48954725 11.03703875 0.744763 11.01910324 -1 11 C-0.67 9.02 -0.34 7.04 0 5 C-1.65 5 -3.3 5 -5 5 C-4.34 4.67 -3.68 4.34 -3 4 C-3 3.34 -3 2.68 -3 2 C-2.01 2 -1.02 2 0 2 C0 1.34 0 0.68 0 0 Z " fill="#2E495F" transform="translate(71,19)"/>
<path d="M0 0 C0.99 0 1.98 0 3 0 C3 1.65 3 3.3 3 5 C3.66 5 4.32 5 5 5 C5.33 3.35 5.66 1.7 6 0 C6.66 0 7.32 0 8 0 C8 1.98 8 3.96 8 6 C5.10450497 6.1954384 2.20891002 6.38161395 -0.6875 6.5625 C-1.50412109 6.61857422 -2.32074219 6.67464844 -3.16210938 6.73242188 C-7.29514123 6.98341571 -10.95824282 7.11127743 -15 6 C-15 5.01 -15 4.02 -15 3 C-13.35 2.34 -11.7 1.68 -10 1 C-9.01 1.99 -8.02 2.98 -7 4 C-6.34 3.67 -5.68 3.34 -5 3 C-4.01 3.33 -3.02 3.66 -2 4 C-1.34 2.68 -0.68 1.36 0 0 Z " fill="#D1F4FD" transform="translate(75,11)"/>
<path d="M0 0 C0.33 0 0.66 0 1 0 C2.08472545 2.8075247 3 5.22004051 3 8.25 C1.44326336 10.97428912 -1.08355605 11.04654717 -4 12 C-5.70680947 13.62553283 -7.37660195 15.29115995 -9 17 C-11.3125 18.3125 -11.3125 18.3125 -13 19 C-13.3125 16.75 -13.3125 16.75 -13 14 C-8.89189189 10 -8.89189189 10 -6 10 C-6 9.34 -6 8.68 -6 8 C-6.66 7.67 -7.32 7.34 -8 7 C-5.69 7 -3.38 7 -1 7 C-0.67 4.69 -0.34 2.38 0 0 Z " fill="#345571" transform="translate(14,11)"/>
<path d="M0 0 C0.99773437 0.02320312 1.99546875 0.04640625 3.0234375 0.0703125 C4.52777344 0.09738281 4.52777344 0.09738281 6.0625 0.125 C6.83335938 0.14820312 7.60421875 0.17140625 8.3984375 0.1953125 C8.3984375 2.8353125 8.3984375 5.4753125 8.3984375 8.1953125 C8.0684375 7.5353125 7.7384375 6.8753125 7.3984375 6.1953125 C3.7684375 6.1953125 0.1384375 6.1953125 -3.6015625 6.1953125 C-3.9315625 4.8753125 -4.2615625 3.5553125 -4.6015625 2.1953125 C-2.6015625 0.1953125 -2.6015625 0.1953125 0 0 Z " fill="#152D47" transform="translate(78.6015625,0.8046875)"/>
<path d="M0 0 C5.61 0 11.22 0 17 0 C17 0.66 17 1.32 17 2 C16.01 2 15.02 2 14 2 C14 2.66 14 3.32 14 4 C9.32798795 5.20568053 4.78503708 5.09382426 0 5 C0 3.35 0 1.7 0 0 Z " fill="#C4DC4B" transform="translate(54,19)"/>
<path d="M0 0 C0.99 0.33 1.98 0.66 3 1 C3 2.32 3 3.64 3 5 C3.66 5 4.32 5 5 5 C5 5.66 5 6.32 5 7 C3.68 7 2.36 7 1 7 C1 7.66 1 8.32 1 9 C-0.98 8.34 -2.96 7.68 -5 7 C-5 8.65 -5 10.3 -5 12 C-5.33 12 -5.66 12 -6 12 C-6 10.02 -6 8.04 -6 6 C-7.32 5.34 -8.64 4.68 -10 4 C-9.01 3.67 -8.02 3.34 -7 3 C-7 3.66 -7 4.32 -7 5 C-6.01 5 -5.02 5 -4 5 C-4 4.34 -4 3.68 -4 3 C-1.03 3.495 -1.03 3.495 2 4 C1.34 2.68 0.68 1.36 0 0 Z " fill="#B3DCF5" transform="translate(52,1)"/>
<path d="M0 0 C0.66 0.66 1.32 1.32 2 2 C1.01 2.495 1.01 2.495 0 3 C-0.72159424 4.64363134 -1.39351421 6.31050386 -2 8 C-2.66 8 -3.32 8 -4 8 C-4.33 6.68 -4.66 5.36 -5 4 C-5.66 4 -6.32 4 -7 4 C-7 5.98 -7 7.96 -7 10 C-7.66 9.67 -8.32 9.34 -9 9 C-9.36 3.6 -9.36 3.6 -7.875 1.125 C-5.15781176 -0.50531294 -3.10347254 -0.33015665 0 0 Z " fill="#579FD1" transform="translate(24,7)"/>
<path d="M0 0 C1.37478516 0.01740234 1.37478516 0.01740234 2.77734375 0.03515625 C3.69644531 0.04417969 4.61554687 0.05320313 5.5625 0.0625 C6.27277344 0.07410156 6.98304687 0.08570312 7.71484375 0.09765625 C7.38484375 1.74765625 7.05484375 3.39765625 6.71484375 5.09765625 C3.08484375 5.09765625 -0.54515625 5.09765625 -4.28515625 5.09765625 C-3.0432556 0.13005366 -3.0432556 0.13005366 0 0 Z " fill="#0F2C45" transform="translate(21.28515625,0.90234375)"/>
<path d="M0 0 C0.33 1.65 0.66 3.3 1 5 C-1.64 5 -4.28 5 -7 5 C-7.99 8.465 -7.99 8.465 -9 12 C-9.33 12 -9.66 12 -10 12 C-10.36794425 4.5184669 -10.36794425 4.5184669 -8.625 2.0625 C-5.57295516 0.06693222 -3.62335324 -0.0953514 0 0 Z " fill="#3B6484" transform="translate(12,3)"/>
<path d="M0 0 C2 2 2 2 2 6 C0.68 5.67 -0.64 5.34 -2 5 C-2 4.34 -2 3.68 -2 3 C-2.66 3 -3.32 3 -4 3 C-4 3.66 -4 4.32 -4 5 C-5.32 5 -6.64 5 -8 5 C-8.33 4.01 -8.66 3.02 -9 2 C-8.34 2 -7.68 2 -7 2 C-7 1.34 -7 0.68 -7 0 C-4.29393021 -1.35303489 -2.8671629 -0.7884698 0 0 Z " fill="#71B9EC" transform="translate(36,8)"/>
<path d="M0 0 C3.3 0 6.6 0 10 0 C9.01 0.495 9.01 0.495 8 1 C8 1.66 8 2.32 8 3 C7.01 3 6.02 3 5 3 C5 2.34 5 1.68 5 1 C4.01 1.495 4.01 1.495 3 2 C3.99 2.66 4.98 3.32 6 4 C6.29296875 6.6015625 6.29296875 6.6015625 6.1875 9.625 C6.16042969 10.62789062 6.13335937 11.63078125 6.10546875 12.6640625 C6.07066406 13.43492188 6.03585938 14.20578125 6 15 C5.67 15 5.34 15 5 15 C4.67 12.36 4.34 9.72 4 7 C3.01 6.67 2.02 6.34 1 6 C0.67 6.66 0.34 7.32 0 8 C0 5.36 0 2.72 0 0 Z " fill="#7AB4DD" transform="translate(40,3)"/>
<path d="M0 0 C1.74216797 0.15275391 1.74216797 0.15275391 3.51953125 0.30859375 C4.39996094 0.39238281 5.28039062 0.47617187 6.1875 0.5625 C5.8575 2.5425 5.5275 4.5225 5.1875 6.5625 C4.1975 6.5625 3.2075 6.5625 2.1875 6.5625 C1.8575 6.2325 1.5275 5.9025 1.1875 5.5625 C0.1975 5.5625 -0.7925 5.5625 -1.8125 5.5625 C-1.8125 4.5725 -1.8125 3.5825 -1.8125 2.5625 C-5.1125 2.2325 -8.4125 1.9025 -11.8125 1.5625 C-11.8125 1.2325 -11.8125 0.9025 -11.8125 0.5625 C-7.71524731 -0.47917441 -4.19754776 -0.38159525 0 0 Z " fill="#5E9BCE" transform="translate(64.8125,23.4375)"/>
<path d="M0 0 C2.97 0 5.94 0 9 0 C9 0.99 9 1.98 9 3 C7.68 2.67 6.36 2.34 5 2 C5 3.98 5 5.96 5 8 C3.35 8 1.7 8 0 8 C0 5.36 0 2.72 0 0 Z " fill="#EFC5F2" transform="translate(72,18)"/>
<path d="M0 0 C4.95 0 9.9 0 15 0 C14.67 1.98 14.34 3.96 14 6 C12.02 5.34 10.04 4.68 8 4 C8 3.34 8 2.68 8 2 C5.36 2 2.72 2 0 2 C0 1.34 0 0.68 0 0 Z " fill="#2D4B67" transform="translate(61,1)"/>
<path d="M0 0 C1.98 0.495 1.98 0.495 4 1 C4 3.64 4 6.28 4 9 C2.35 9.33 0.7 9.66 -1 10 C-1.125 2.25 -1.125 2.25 0 0 Z " fill="#D5F4FD" transform="translate(41,9)"/>
<path d="M0 0 C2.97 0 5.94 0 9 0 C8.375 2.4375 8.375 2.4375 7 5 C3.9375 5.875 3.9375 5.875 1 6 C0 5 0 5 -0.0625 2.4375 C-0.041875 1.633125 -0.02125 0.82875 0 0 Z " fill="#093968" transform="translate(7,8)"/>
<path d="M0 0 C1.65 0 3.3 0 5 0 C5 0.66 5 1.32 5 2 C5.66 2.33 6.32 2.66 7 3 C4.63707344 5.52588702 3.33537489 6.88820837 0 8 C-0.33 8.66 -0.66 9.32 -1 10 C-2.32 9.67 -3.64 9.34 -5 9 C-4.175 8.2575 -3.35 7.515 -2.5 6.75 C0.44844853 4.12612615 0.44844853 4.12612615 0 0 Z " fill="#87A9C3" transform="translate(20,20)"/>
<path d="M0 0 C2.64 0 5.28 0 8 0 C8.33 1.32 8.66 2.64 9 4 C9.66 4 10.32 4 11 4 C10.67 6.31 10.34 8.62 10 11 C10.66 11.33 11.32 11.66 12 12 C10.68 11.67 9.36 11.34 8 11 C8.33 9.02 8.66 7.04 9 5 C7.35 5 5.7 5 4 5 C4 3.68 4 2.36 4 1 C2.68 0.67 1.36 0.34 0 0 Z " fill="#3D6D96" transform="translate(61,3)"/>
<path d="M0 0 C4 2 4 2 7 4 C7 4.66 7 5.32 7 6 C4.69 7.32 2.38 8.64 0 10 C0 6.7 0 3.4 0 0 Z " fill="#204769" transform="translate(1,15)"/>
<path d="M0 0 C0.33 4.29 0.66 8.58 1 13 C-0.98 13.33 -2.96 13.66 -5 14 C-4.484375 12.96875 -3.96875 11.9375 -3.4375 10.875 C-1.86604974 7.26947626 -1.96889338 4.84321557 -3 1 C-1 0 -1 0 0 0 Z " fill="#4E83BC" transform="translate(59,4)"/>
<path d="M0 0 C0.66 0.33 1.32 0.66 2 1 C1.01 2.485 1.01 2.485 0 4 C0.66 4.33 1.32 4.66 2 5 C-1.96 5 -5.92 5 -10 5 C-9.01 3.68 -8.02 2.36 -7 1 C-5.824375 1.309375 -5.824375 1.309375 -4.625 1.625 C-3.75875 1.74875 -2.8925 1.8725 -2 2 C-1.34 1.34 -0.68 0.68 0 0 Z " fill="#C4CDDB" transform="translate(49,25)"/>
<path d="M0 0 C1.35158203 0.15275391 1.35158203 0.15275391 2.73046875 0.30859375 C3.41753906 0.39238281 4.10460938 0.47617187 4.8125 0.5625 C3.125 2.625 3.125 2.625 0.8125 4.5625 C-1.6875 4.3125 -1.6875 4.3125 -4.1875 3.5625 C-5.5075 3.5625 -6.8275 3.5625 -8.1875 3.5625 C-8.1875 2.5725 -8.1875 1.5825 -8.1875 0.5625 C-4.98734144 -0.50421952 -3.30205706 -0.38595472 0 0 Z " fill="#8CA3BD" transform="translate(46.1875,23.4375)"/>
<path d="M0 0 C0.99 0 1.98 0 3 0 C3 0.66 3 1.32 3 2 C4.32 2 5.64 2 7 2 C6.67 3.32 6.34 4.64 6 6 C5.01 5.67 4.02 5.34 3 5 C3 6.32 3 7.64 3 9 C2.34 9 1.68 9 1 9 C0.45627049 5.94152152 0 3.11227195 0 0 Z " fill="#91BDDC" transform="translate(58,2)"/>
<path d="M0 0 C2.31 0.33 4.62 0.66 7 1 C7 2.65 7 4.3 7 6 C6.4225 5.835 5.845 5.67 5.25 5.5 C2.73335631 4.85537969 2.73335631 4.85537969 -1 5 C-0.67 3.35 -0.34 1.7 0 0 Z " fill="#938798" transform="translate(77,20)"/>
<path d="M0 0 C1.16144531 0.00902344 2.32289062 0.01804687 3.51953125 0.02734375 C4.39996094 0.03894531 5.28039062 0.05054687 6.1875 0.0625 C6.5175 0.7225 6.8475 1.3825 7.1875 2.0625 C0.60566638 2.9556507 -5.23400508 3.01744281 -11.8125 2.0625 C-11.8125 1.7325 -11.8125 1.4025 -11.8125 1.0625 C-7.81454108 0.10630267 -4.10446078 -0.0414592 0 0 Z " fill="#EA8294" transform="translate(64.8125,16.9375)"/>
<path d="M0 0 C0.33 0 0.66 0 1 0 C3.42857143 6.28571429 3.42857143 6.28571429 2 10 C1.01 9.67 0.02 9.34 -1 9 C-3.33006911 8.64456573 -5.66327016 8.3086247 -8 8 C-8 7.67 -8 7.34 -8 7 C-5.69 7 -3.38 7 -1 7 C-0.67 4.69 -0.34 2.38 0 0 Z " fill="#295C8E" transform="translate(14,11)"/>
<path d="M0 0 C0 1.65 0 3.3 0 5 C-1.98 5 -3.96 5 -6 5 C-6.66 3.68 -7.32 2.36 -8 1 C-1.125 0 -1.125 0 0 0 Z " fill="#59A3D7" transform="translate(13,13)"/>
<path d="M0 0 C1.32 0 2.64 0 4 0 C4 0.66 4 1.32 4 2 C4.66 2 5.32 2 6 2 C6 3.98 6 5.96 6 8 C5.34 8 4.68 8 4 8 C4 6.35 4 4.7 4 3 C2.35 3.66 0.7 4.32 -1 5 C-0.67 3.35 -0.34 1.7 0 0 Z " fill="#498FC2" transform="translate(74,8)"/>
<path d="M0 0 C0.33 0 0.66 0 1 0 C1.12375 1.093125 1.2475 2.18625 1.375 3.3125 C1.75464801 7.07381802 1.75464801 7.07381802 4 10 C2.35 10 0.7 10 -1 10 C-0.67 8.35 -0.34 6.7 0 5 C-1.65 5 -3.3 5 -5 5 C-4.34 4.67 -3.68 4.34 -3 4 C-3 3.34 -3 2.68 -3 2 C-2.01 2 -1.02 2 0 2 C0 1.34 0 0.68 0 0 Z " fill="#58736B" transform="translate(71,19)"/>
<path d="M0 0 C3.3 0 6.6 0 10 0 C9.67 0.99 9.34 1.98 9 3 C6.36 3 3.72 3 1 3 C0.67 2.01 0.34 1.02 0 0 Z " fill="#8FBA6B" transform="translate(43,21)"/>
<path d="M0 0 C0.99 0.33 1.98 0.66 3 1 C3 2.32 3 3.64 3 5 C3.66 5 4.32 5 5 5 C5 5.66 5 6.32 5 7 C2.36 6.67 -0.28 6.34 -3 6 C-3.33 5.01 -3.66 4.02 -4 3 C-1.03 3.495 -1.03 3.495 2 4 C1.34 2.68 0.68 1.36 0 0 Z " fill="#A1C0D9" transform="translate(52,1)"/>
<path d="M0 0 C1.8871875 0.0309375 1.8871875 0.0309375 3.8125 0.0625 C2.8225 1.5475 2.8225 1.5475 1.8125 3.0625 C-0.3515625 3.35546875 -0.3515625 3.35546875 -2.8125 3.25 C-3.62976562 3.22292969 -4.44703125 3.19585938 -5.2890625 3.16796875 C-5.91554688 3.13316406 -6.54203125 3.09835938 -7.1875 3.0625 C-7.1875 2.4025 -7.1875 1.7425 -7.1875 1.0625 C-4.43671116 0.14557039 -2.82801087 -0.04636083 0 0 Z " fill="#F5F2E5" transform="translate(37.1875,26.9375)"/>
<path d="M0 0 C4.82360189 -0.19294408 8.49646738 0.24252386 13 2 C13 2.33 13 2.66 13 3 C11.20841511 3.02696365 9.41671527 3.04637917 7.625 3.0625 C6.62726562 3.07410156 5.62953125 3.08570313 4.6015625 3.09765625 C2 3 2 3 0 2 C0 1.34 0 0.68 0 0 Z " fill="#4F6F95" transform="translate(49,27)"/>
<path d="M0 0 C1.32 0.66 2.64 1.32 4 2 C3.875 4.25 3.875 4.25 3 7 C-0.0625 9.3125 -0.0625 9.3125 -3 11 C-2.690625 10.484375 -2.38125 9.96875 -2.0625 9.4375 C-0.70940713 6.33334577 -0.38640576 3.34884993 0 0 Z " fill="#658BA6" transform="translate(17,19)"/>
<path d="M0 0 C0.33 0 0.66 0 1 0 C1.08133791 1.91595968 1.13934367 3.83291932 1.1875 5.75 C1.22230469 6.81734375 1.25710937 7.8846875 1.29296875 8.984375 C0.97082786 12.30027855 0.22851086 13.59016673 -2 16 C-2 14.68 -2 13.36 -2 12 C-2.66 12 -3.32 12 -4 12 C-4 11.34 -4 10.68 -4 10 C-3.01 9.67 -2.02 9.34 -1 9 C-0.67 6.03 -0.34 3.06 0 0 Z " fill="#243A51" transform="translate(86,9)"/>
<path d="M0 0 C-2.95183101 2.95183101 -5.95511947 3.08663988 -10 4 C-9.25 2.0625 -9.25 2.0625 -8 0 C-5.05360248 -1.27677226 -3.00864103 -0.96706319 0 0 Z " fill="#527390" transform="translate(36,15)"/>
<path d="M0 0 C0.66 0.33 1.32 0.66 2 1 C1.67 2.65 1.34 4.3 1 6 C-0.65 5.67 -2.3 5.34 -4 5 C-4 4.01 -4 3.02 -4 2 C-2.125 0.9375 -2.125 0.9375 0 0 Z " fill="#85C1F7" transform="translate(64,12)"/>
<path d="M0 0 C0.33 0.66 0.66 1.32 1 2 C1.99 2 2.98 2 4 2 C4 2.99 4 3.98 4 5 C1.03 5 -1.94 5 -5 5 C-5.33 4.34 -5.66 3.68 -6 3 C-4.02 3 -2.04 3 0 3 C0 2.01 0 1.02 0 0 Z " fill="#2F343E" transform="translate(79,23)"/>
<path d="M0 0 C0.66 0.99 1.32 1.98 2 3 C1.67 3.66 1.34 4.32 1 5 C-1.64 4.67 -4.28 4.34 -7 4 C-4.82575883 1.49962266 -3.26954202 0.56371414 0 0 Z " fill="#A6C5BF" transform="translate(36,20)"/>
<path d="M0 0 C1.32 0.33 2.64 0.66 4 1 C3.34 2.32 2.68 3.64 2 5 C0.68 4.67 -0.64 4.34 -2 4 C-2 3.34 -2 2.68 -2 2 C-1.34 2 -0.68 2 0 2 C0 1.34 0 0.68 0 0 Z " fill="#EBFDFF" transform="translate(61,9)"/>
<path d="M0 0 C2.97 0.495 2.97 0.495 6 1 C5.67 1.99 5.34 2.98 5 4 C2.9375 4.6875 2.9375 4.6875 1 5 C0.67 3.35 0.34 1.7 0 0 Z " fill="#0B2035" transform="translate(78,2)"/>
<path d="M0 0 C0.33 0.99 0.66 1.98 1 3 C-1.31 3.33 -3.62 3.66 -6 4 C-6.66 3.01 -7.32 2.02 -8 1 C-5.36 0.67 -2.72 0.34 0 0 Z " fill="#417DAD" transform="translate(25,17)"/>
<path d="M0 0 C-0.33 0.99 -0.66 1.98 -1 3 C-2.98 3.33 -4.96 3.66 -7 4 C-7.66 3.01 -8.32 2.02 -9 1 C-5.846632 0.29925156 -3.27275026 0 0 0 Z " fill="#C9E7F4" transform="translate(36,19)"/>
<path d="M0 0 C3.3 0 6.6 0 10 0 C9.01 0.495 9.01 0.495 8 1 C8 1.66 8 2.32 8 3 C7.01 3 6.02 3 5 3 C5 2.34 5 1.68 5 1 C3.68 1 2.36 1 1 1 C0.67 1.99 0.34 2.98 0 4 C0 2.68 0 1.36 0 0 Z " fill="#588EB4" transform="translate(40,3)"/>
<path d="M0 0 C1.2065625 0.0309375 1.2065625 0.0309375 2.4375 0.0625 C1.7775 1.7125 1.1175 3.3625 0.4375 5.0625 C-0.5525 5.0625 -1.5425 5.0625 -2.5625 5.0625 C-3.125 3.125 -3.125 3.125 -3.5625 1.0625 C-2.5625 0.0625 -2.5625 0.0625 0 0 Z " fill="#041B30" transform="translate(16.5625,0.9375)"/>
<path d="M0 0 C0.66 0.33 1.32 0.66 2 1 C1.01 1.33 0.02 1.66 -1 2 C-2.21869929 4.50447516 -2.21869929 4.50447516 -3 7 C-4.32 6.67 -5.64 6.34 -7 6 C-4.69 4.02 -2.38 2.04 0 0 Z " fill="#859CAC" transform="translate(22,23)"/>
<path d="M0 0 C0.66 0 1.32 0 2 0 C2.66 1.65 3.32 3.3 4 5 C2.02 5.99 2.02 5.99 0 7 C0 4.69 0 2.38 0 0 Z " fill="#193856" transform="translate(1,15)"/>
<path d="M0 0 C0.99 0.33 1.98 0.66 3 1 C3 1.66 3 2.32 3 3 C2.34 3 1.68 3 1 3 C1 4.32 1 5.64 1 7 C0.34 7 -0.32 7 -1 7 C-1.04254356 5.00045254 -1.04080783 2.99958364 -1 1 C-0.67 0.67 -0.34 0.34 0 0 Z " fill="#95D4FB" transform="translate(24,9)"/>
<path d="M0 0 C1.32 0.99 2.64 1.98 4 3 C3.67 4.32 3.34 5.64 3 7 C2.01 7 1.02 7 0 7 C0.66 6.01 1.32 5.02 2 4 C1.01 3.67 0.02 3.34 -1 3 C-0.67 2.01 -0.34 1.02 0 0 Z " fill="#C7D1CA" transform="translate(51,17)"/>
<path d="M0 0 C0.66 0 1.32 0 2 0 C2 1.98 2 3.96 2 6 C0.35 6 -1.3 6 -3 6 C-2.34 5.67 -1.68 5.34 -1 5 C-0.34444881 2.47266765 -0.34444881 2.47266765 0 0 Z " fill="#99CFF7" transform="translate(81,11)"/>
<path d="M0 0 C0.99 0 1.98 0 3 0 C3 1.32 3 2.64 3 4 C1.35 4 -0.3 4 -2 4 C-1.34 2.68 -0.68 1.36 0 0 Z " fill="#99DBFB" transform="translate(75,11)"/>
<path d="M0 0 C0.66 0.33 1.32 0.66 2 1 C1.67 2.65 1.34 4.3 1 6 C-0.65 5.67 -2.3 5.34 -4 5 C-2.68 3.35 -1.36 1.7 0 0 Z " fill="#213E57" transform="translate(74,1)"/>
</svg>
