<?xml version="1.0" encoding="UTF-8"?>
<svg version="1.1" xmlns="http://www.w3.org/2000/svg" width="960" height="848">
<path d="M0 0 C1.03858154 0.54430664 1.03858154 0.54430664 2.09814453 1.09960938 C19.35696122 10.18443157 35.63519949 20.99491214 51 33 C52.10123264 33.84548189 53.20281221 34.69051206 54.3046875 35.53515625 C67.20558801 45.48344965 79.37487294 56.25093915 91.26513672 67.37841797 C93.14253085 69.13322402 95.02620989 70.88113769 96.91015625 72.62890625 C118.48417915 92.68928039 118.48417915 92.68928039 127.328125 103.109375 C129.29754029 105.33647079 131.38374342 107.41214954 133.5 109.5 C136.87100065 112.83120807 140.0451403 116.25111628 143.12890625 119.84765625 C145.33079829 122.38052162 147.60195826 124.84332522 149.875 127.3125 C153.92078744 131.74765646 157.74683946 136.30958028 161.515625 140.98046875 C164.46614175 144.56655279 167.50833795 148.06473128 170.5625 151.5625 C175.52836709 157.26183994 180.34377218 163.04330231 185 169 C186.2065625 170.52947266 186.2065625 170.52947266 187.4375 172.08984375 C189.7808479 175.06077345 192.11570175 178.03826442 194.44775391 181.01806641 C195.50878272 182.37280562 196.57101312 183.72660438 197.63427734 185.07958984 C219.40276838 212.78551386 239.58866645 241.60457185 259 271 C259.43747559 271.65983887 259.87495117 272.31967773 260.32568359 272.99951172 C273.40257301 292.76202945 285.83874878 313.09261646 297 334 C297.48791016 334.91023926 297.97582031 335.82047852 298.47851562 336.75830078 C300.03458462 339.66842109 301.58188018 342.58299461 303.125 345.5 C303.61145996 346.41579834 304.09791992 347.33159668 304.59912109 348.27514648 C305.04336426 349.12278564 305.48760742 349.9704248 305.9453125 350.84375 C306.34250488 351.59849609 306.73969727 352.35324219 307.14892578 353.13085938 C308 355 308 355 308 357 C308.66 357 309.32 357 310 357 C310.33644531 355.83017578 310.33644531 355.83017578 310.6796875 354.63671875 C312.43389738 349.80485662 314.74097015 345.36086032 317.125 340.8125 C317.91136841 339.3109436 317.91136841 339.3109436 318.71362305 337.77905273 C334.2619463 308.45968006 352.40761052 280.46061992 371 253 C371.51546387 252.23719727 372.03092773 251.47439453 372.56201172 250.68847656 C379.82133415 239.96633127 387.36709307 229.45852928 395 219 C395.5662207 218.22221191 396.13244141 217.44442383 396.71582031 216.64306641 C404.74188157 205.62819239 412.95793736 194.78223503 421.37890625 184.06640625 C422.90445959 182.12178524 424.42236768 180.17149546 425.9375 178.21875 C431.26696183 171.36511629 436.75204977 164.67550207 442.390625 158.07421875 C444.76269035 155.29266912 447.07492712 152.46651339 449.375 149.625 C457.72429661 139.3822022 466.46693683 129.48197529 475.4375 119.78125 C477.90199812 117.10636789 480.32960346 114.40226909 482.75 111.6875 C485.80687126 108.27707602 488.95480148 105.01131043 492.2253418 101.80712891 C493.95251859 100.04835017 495.55348263 98.23097636 497.15234375 96.35546875 C501.21826523 91.68202045 505.54765434 87.30511859 509.9375 82.9375 C511.07735352 81.7918457 511.07735352 81.7918457 512.24023438 80.62304688 C516.39415609 76.47621982 520.63393109 72.50213873 525.08178711 68.6730957 C528.24417425 65.91481149 531.26706191 63.01089779 534.3125 60.125 C539.42130399 55.32566739 544.59909254 50.70151777 550.08203125 46.328125 C552.28794181 44.56812139 554.46768023 42.7888173 556.63671875 40.984375 C599.6886358 5.29166846 655.1896956 -28.18648185 713 -25 C730.10112156 -23.15497003 743.86660778 -15.60174008 755.00390625 -2.55859375 C767.90515829 13.97823616 772.95315156 36.21237083 773.2734375 56.91015625 C773.28601089 57.67970139 773.29858429 58.44924652 773.3115387 59.24211121 C773.76173446 94.27206938 770.8448474 129.11717141 768 164 C767.89897728 165.24027576 767.89897728 165.24027576 767.7959137 166.5056076 C764.16141958 211.05892594 760.30105282 255.60964369 755 300 C754.89192017 300.90520386 754.78384033 301.81040771 754.67248535 302.74304199 C750.1960635 339.88145984 741.03776846 373.87439824 718 404 C717.29230469 404.93328125 716.58460938 405.8665625 715.85546875 406.828125 C681.5383099 450.3771726 629.73707013 469.75362561 576.26464844 476.62329102 C563.37594628 478.1105231 550.57979247 478.12232956 537.625 478.0625 C535.71354285 478.05747156 533.80208441 478.05291104 531.890625 478.04882812 C527.26038413 478.03793688 522.63020677 478.02074751 518 478 C518.77786865 478.1952124 519.5557373 478.3904248 520.35717773 478.59155273 C564.0610234 489.65463998 607.00912414 505.1856889 640 537 C640.79019531 537.72703125 641.58039062 538.4540625 642.39453125 539.203125 C659.50663965 555.38620475 671.30918507 578.9789101 672.23828125 602.6953125 C673.07753623 643.35213544 654.60072903 677.31432531 628 707 C627.5153125 707.54108398 627.030625 708.08216797 626.53125 708.63964844 C617.93173444 718.18533466 609.11910583 727.68466711 599.3203125 736.015625 C597.45830978 737.60804484 595.62797575 739.22338914 593.8046875 740.859375 C560.09176537 770.91773006 519.19199514 794.77599302 472.81347656 793.17919922 C459.64768865 792.34062855 446.83969556 788.75781102 435 783 C434.36143066 782.6896582 433.72286133 782.37931641 433.06494141 782.05957031 C408.85282944 769.9803438 389.47920003 749.85823636 374 728 C373.50580566 727.30745117 373.01161133 726.61490234 372.50244141 725.90136719 C347.23771926 690.17969551 330.97291348 649.65803021 316.25 608.75 C315.93532776 607.87664001 315.62065552 607.00328003 315.29644775 606.10345459 C314.40676357 603.62780911 313.52244136 601.15033252 312.640625 598.671875 C312.23845261 597.55061722 312.23845261 597.55061722 311.82815552 596.40670776 C310 591.23290518 310 591.23290518 310 589 C309.34 589 308.68 589 308 589 C307.6390625 590.2684375 307.278125 591.536875 306.90625 592.84375 C289.98628069 649.13822734 265.47921205 708.52726893 224.36914062 751.56347656 C223.04194932 752.95598613 221.7316017 754.36448908 220.421875 755.7734375 C199.3010576 777.84279461 171.15129446 792.55929717 140.2590332 793.35351562 C99.82462832 793.67567295 63.29618227 773.33597265 33 748 C32.02160156 747.19433594 31.04320312 746.38867188 30.03515625 745.55859375 C21.37459473 738.37627525 13.12197246 730.78328023 5 723 C4.4436084 722.46697266 3.8872168 721.93394531 3.31396484 721.38476562 C-2.82020134 715.47133297 -8.5639056 709.37984625 -13.86328125 702.69140625 C-15.26665085 700.92372497 -16.70107894 699.18017976 -18.16796875 697.46484375 C-42.22319362 669.2372082 -55.81136669 635.20118682 -54 598 C-51.33924723 569.70197164 -33.33162371 545.18183791 -12.10302734 527.41210938 C-3.86021181 520.85224679 5.02816901 515.23610152 14.17773438 510.03662109 C15.90260697 509.05540338 17.61576588 508.05367702 19.328125 507.05078125 C44.36517041 492.96029793 72.24397617 484.78490402 100 478 C98.87843506 478.01047363 97.75687012 478.02094727 96.60131836 478.03173828 C59.51519822 478.34677693 23.46788324 477.21609916 -12 465 C-12.68916504 464.76700195 -13.37833008 464.53400391 -14.08837891 464.29394531 C-35.93101212 456.82520794 -56.49209742 446.17149271 -74 431 C-74.81597656 430.29359375 -75.63195312 429.5871875 -76.47265625 428.859375 C-99.91314733 408.13609695 -116.5604427 383.26750943 -126.75 353.6875 C-127.01973633 352.91946045 -127.28947266 352.1514209 -127.56738281 351.36010742 C-132.81164414 335.39614916 -134.83893526 318.43222067 -136.8125 301.8125 C-136.93561554 300.78935699 -137.05873108 299.76621399 -137.18557739 298.71206665 C-143.97392152 242.004042 -148.40432407 185.06745717 -152.6171875 128.12109375 C-152.68111631 127.25868324 -152.74504513 126.39627274 -152.81091118 125.50772858 C-155.14370181 93.95834466 -155.14370181 93.95834466 -155.203125 82.4453125 C-155.20882507 81.53401581 -155.21452515 80.62271912 -155.22039795 79.68380737 C-155.22971159 77.78351962 -155.23632629 75.88321671 -155.24023438 73.98291016 C-155.2499643 71.13544753 -155.28113024 68.28870175 -155.3125 65.44140625 C-155.4698625 38.21695843 -150.3252291 11.13481925 -130.91015625 -9.1875 C-95.77735256 -42.73202142 -36.21894237 -19.26745585 0 0 Z M105 476 C109 477 109 477 109 477 Z M509 476 C513 477 513 477 513 477 Z " fill="#1085FE" transform="translate(171,40)"/>
</svg>
