<?xml version="1.0" encoding="UTF-8"?>
<svg version="1.1" xmlns="http://www.w3.org/2000/svg" width="200" height="200">
<path d="M0 0 C2.83886719 1.34423828 2.83886719 1.34423828 5.796875 3.0703125 C6.90861084 3.71258789 8.02034668 4.35486328 9.16577148 5.01660156 C10.36065507 5.71916172 11.5553946 6.42196693 12.75 7.125 C13.98657468 7.84426044 15.22364269 8.56267336 16.46118164 9.28027344 C19.02294278 10.76702474 21.581862 12.25851644 24.13916016 13.75292969 C27.89597743 15.94457417 31.67026398 18.10462615 35.44921875 20.2578125 C36.63647327 20.93589503 37.82364918 21.61411522 39.01074219 22.29248047 C41.25107452 23.57225994 43.49256465 24.8500153 45.73535156 26.12548828 C46.74952148 26.7079834 47.76369141 27.29047852 48.80859375 27.890625 C49.69345459 28.39625977 50.57831543 28.90189453 51.48999023 29.42285156 C58.62831351 33.90817092 58.62831351 33.90817092 60 37.9375 C60 41.80354625 59.37490843 42.93749903 57 46 C54.20382457 48.0598121 51.23341819 49.71447546 48.1875 51.375 C47.39279297 51.83777344 46.59808594 52.30054688 45.77929688 52.77734375 C42.31306876 54.69824767 39.87998843 55.99120012 35.875 56.03125 C32.29160605 54.74590217 29.07714052 53.05511676 25.8125 51.125 C25.13268066 50.73586426 24.45286133 50.34672852 23.75244141 49.94580078 C19.77920536 47.66269269 15.85372202 45.30763367 11.94140625 42.921875 C11.09795654 42.4151123 10.25450684 41.90834961 9.38549805 41.38623047 C7.73862418 40.39487102 6.10032858 39.38908906 4.47192383 38.36767578 C3.33726685 37.68680908 3.33726685 37.68680908 2.1796875 36.9921875 C1.18557861 36.37899658 1.18557861 36.37899658 0.17138672 35.75341797 C-4.01915171 34.29940385 -7.28032188 35.6519383 -11.14038086 37.51879883 C-12.23745361 38.15841553 -13.33452637 38.79803223 -14.46484375 39.45703125 C-15.06124161 39.80126633 -15.65763947 40.1455014 -16.27210999 40.50016785 C-18.16570059 41.59571574 -20.05160808 42.70376267 -21.9375 43.8125 C-23.19937614 44.54577206 -24.46174216 45.27820177 -25.72460938 46.00976562 C-28.06294462 47.36567643 -30.39759389 48.72725382 -32.73022461 50.09301758 C-33.80925049 50.72232178 -34.88827637 51.35162598 -36 52 C-36.61575897 52.37217651 -37.23151794 52.74435303 -37.86593628 53.12780762 C-42.68478553 55.99403648 -42.68478553 55.99403648 -45.890625 56.0546875 C-50.18717863 54.59731378 -53.87933668 52.46864349 -57.75 50.125 C-58.90048828 49.45404297 -58.90048828 49.45404297 -60.07421875 48.76953125 C-65.73562014 45.39656979 -65.73562014 45.39656979 -68 42 C-67.9375 38.5625 -67.9375 38.5625 -67 35 C-63.6384395 31.9174415 -59.94539526 29.69461865 -55.984375 27.4609375 C-55.41567184 27.13834961 -54.84696869 26.81576172 -54.2610321 26.48339844 C-52.42616801 25.443419 -50.58808736 24.40926979 -48.75 23.375 C-46.21371285 21.93949188 -43.67913645 20.50097523 -41.14453125 19.0625 C-40.52300674 18.71029388 -39.90148224 18.35808777 -39.26112366 17.99520874 C-34.28835676 15.17398756 -29.35450571 12.2919656 -24.4375 9.375 C-23.12789642 8.60497149 -21.81801611 7.83541337 -20.5078125 7.06640625 C-18.2417426 5.73621459 -15.99018594 4.38854184 -13.7421875 3.02734375 C-12.77539062 2.46144531 -11.80859375 1.89554688 -10.8125 1.3125 C-9.61560547 0.59513672 -9.61560547 0.59513672 -8.39453125 -0.13671875 C-5.18893611 -1.29240639 -3.30884434 -0.76818295 0 0 Z " fill="#F5554E" transform="translate(104,7)"/>
<path d="M0 0 C2.97793558 2.23787607 3.90577666 3.42462279 4.5146637 7.14280701 C4.52086227 8.38015091 4.52706085 9.61749481 4.53344727 10.89233398 C4.54637062 11.91991821 4.54637062 11.91991821 4.55955505 12.96826172 C4.5822176 15.22792583 4.57547623 17.48634989 4.56640625 19.74609375 C4.57164211 21.32023995 4.57791845 22.894383 4.58518982 24.46852112 C4.59559473 27.76635509 4.59103215 31.0637576 4.57641602 34.36157227 C4.55923523 38.58316628 4.58271252 42.80339835 4.61790562 47.02484035 C4.63989172 50.27546672 4.63843523 53.52576787 4.6301403 56.77644539 C4.62932129 58.33254553 4.63617537 59.88866966 4.65091133 61.44470024 C4.66837994 63.62340236 4.65380065 65.79966642 4.63110352 67.97827148 C4.63014175 69.21641098 4.62917999 70.45455048 4.62818909 71.73020935 C3.69231846 76.60151498 0.85296386 78.73195742 -3.11450195 81.44702148 C-3.81534912 81.83446533 -4.51619629 82.22190918 -5.23828125 82.62109375 C-6.04668457 83.07468262 -6.85508789 83.52827148 -7.68798828 83.99560547 C-8.55407715 84.47143066 -9.42016602 84.94725586 -10.3125 85.4375 C-12.19210443 86.48963912 -14.07098137 87.54307867 -15.94921875 88.59765625 C-16.93325684 89.14824707 -17.91729492 89.69883789 -18.93115234 90.26611328 C-25.18697346 93.80062733 -31.37029543 97.46089735 -37.5637207 101.10327148 C-40.36925369 102.74718165 -43.18208138 104.37742071 -46 106 C-46.99410889 106.5765332 -47.98821777 107.15306641 -49.01245117 107.74707031 C-49.9841626 108.29717773 -50.95587402 108.84728516 -51.95703125 109.4140625 C-52.8281958 109.91115723 -53.69936035 110.40825195 -54.59692383 110.92041016 C-58.25842224 112.56535031 -60.24278864 112.27905068 -64 111 C-67.70900735 107.29099265 -66.5439934 101.26160858 -66.625 96.25 C-66.68300781 95.06921875 -66.74101563 93.8884375 -66.80078125 92.671875 C-66.92361544 84.28135497 -66.92361544 84.28135497 -64.62084961 81.08666992 C-62.50953095 79.42925578 -60.38495061 78.23351652 -58 77 C-57.03610352 76.43651855 -56.07220703 75.87303711 -55.07910156 75.29248047 C-51.85042775 73.41317033 -48.58906548 71.60685526 -45.3125 69.8125 C-43.09994608 68.59041267 -40.88769514 67.36777662 -38.67578125 66.14453125 C-37.70552002 65.61190674 -36.73525879 65.07928223 -35.7355957 64.53051758 C-30.5891465 62.07160879 -30.5891465 62.07160879 -27 58 C-26.89258623 56.60204724 -26.84384439 55.19932829 -26.82641602 53.79736328 C-26.81292618 52.92951202 -26.79943634 52.06166077 -26.78553772 51.16751099 C-26.77509933 50.22793549 -26.76466095 49.28835999 -26.75390625 48.3203125 C-26.72096834 46.33983932 -26.68775668 44.35937068 -26.65429688 42.37890625 C-26.60686739 39.24954347 -26.56243979 36.12019917 -26.52319336 32.99072266 C-26.48348664 29.97538961 -26.43193796 26.96043648 -26.37890625 23.9453125 C-26.3704921 23.00978546 -26.36207794 22.07425842 -26.35340881 21.11038208 C-26.33676682 20.2362265 -26.32012482 19.36207092 -26.30297852 18.46142578 C-26.29267105 17.69468536 -26.28236359 16.92794495 -26.27174377 16.13796997 C-25.96236399 13.70389514 -25.26544912 12.0928167 -24 10 C-21.28877567 7.91501358 -18.25080984 6.38335219 -15.25 4.75 C-14.05117187 4.06164062 -14.05117187 4.06164062 -12.828125 3.359375 C-4.92513272 -1.0080681 -4.92513272 -1.0080681 0 0 Z " fill="#F6554E" transform="translate(176,68)"/>
<path d="M0 0 C4.67050042 0.78579509 8.06336103 2.94938635 12.046875 5.4296875 C12.81386719 5.88988281 13.58085938 6.35007812 14.37109375 6.82421875 C19.94757952 10.20539202 19.94757952 10.20539202 22.296875 12.5546875 C22.56188965 14.39399719 22.56188965 14.39399719 22.58398438 16.6496582 C22.59739868 17.49426102 22.61081299 18.33886383 22.62463379 19.20906067 C22.62991089 20.12362534 22.63518799 21.03819 22.640625 21.98046875 C22.6552478 22.92021042 22.66987061 23.85995209 22.68493652 24.82817078 C22.73154619 27.84113293 22.76567046 30.85402873 22.796875 33.8671875 C22.83804639 37.82185771 22.89178007 41.77606585 22.953125 45.73046875 C22.9584021 46.63896072 22.9636792 47.5474527 22.96911621 48.48347473 C22.98351725 54.79811991 22.98351725 54.79811991 25.296875 60.5546875 C27.65893363 62.39687772 27.65893363 62.39687772 30.57421875 63.859375 C31.64607422 64.44332031 32.71792969 65.02726562 33.82226562 65.62890625 C34.94826172 66.22316406 36.07425781 66.81742187 37.234375 67.4296875 C58.7212045 78.979017 58.7212045 78.979017 63.296875 83.5546875 C63.55566406 86.02905273 63.55566406 86.02905273 63.5625 89.11328125 C63.56636719 90.77520508 63.56636719 90.77520508 63.5703125 92.47070312 C63.56257813 93.63279297 63.55484375 94.79488281 63.546875 95.9921875 C63.55847656 97.72952148 63.55847656 97.72952148 63.5703125 99.50195312 C63.56773438 100.61119141 63.56515625 101.72042969 63.5625 102.86328125 C63.56024414 103.88220459 63.55798828 104.90112793 63.55566406 105.95092773 C63.296875 108.5546875 63.296875 108.5546875 61.296875 111.5546875 C57.58603785 112.89690519 55.61076557 113.1453292 51.97949219 111.51293945 C51.13032227 111.02784912 50.28115234 110.54275879 49.40625 110.04296875 C48.4356665 109.49406982 47.46508301 108.9451709 46.46508789 108.37963867 C45.41957764 107.77740479 44.37406738 107.1751709 43.296875 106.5546875 C42.21075928 105.93891846 41.12464355 105.32314941 40.00561523 104.6887207 C36.49309072 102.695085 32.98795529 100.6889743 29.484375 98.6796875 C27.71386752 97.66580923 25.94318227 96.6522424 24.1723938 95.63885498 C22.99357673 94.96364834 21.8152507 94.28758367 20.63742065 93.61065674 C17.62568726 91.88080279 14.60695731 90.16576048 11.57275391 88.47558594 C10.9590242 88.13131561 10.34529449 87.78704529 9.71296692 87.43234253 C8.02471849 86.48608664 6.33339039 85.54533122 4.6418457 84.60498047 C3.53800537 83.92838379 2.43416504 83.25178711 1.296875 82.5546875 C0.58435577 82.22230072 -0.12816345 81.88991394 -0.86227417 81.54745483 C-3.44947625 80.10782786 -4.9443815 78.95436309 -6.703125 76.5546875 C-7.87759853 71.16562656 -7.73283767 65.83934943 -7.625 60.359375 C-7.62022713 58.76328121 -7.61842135 57.16717604 -7.6194458 55.57107544 C-7.61320297 52.23334954 -7.58018145 48.89735016 -7.52636719 45.56005859 C-7.45829327 41.2846498 -7.44311352 37.01113019 -7.44614792 32.73524284 C-7.44505988 29.44253542 -7.42311823 26.15024009 -7.39414215 22.85766983 C-7.38142733 21.28125244 -7.37353329 19.70478847 -7.37056732 18.1283226 C-7.36188269 15.92572328 -7.32685826 13.72511872 -7.28417969 11.52294922 C-7.2689325 10.27085663 -7.2536853 9.01876404 -7.23797607 7.72872925 C-6.46389924 3.13501653 -4.58845986 0.94156257 0 0 Z " fill="#FA574F" transform="translate(26.703125,67.4453125)"/>
<path d="M0 0 C3.85230757 1.69935956 7.39845396 3.82672926 11 6 C12.3235594 6.77846588 13.64781468 7.55574947 14.97265625 8.33203125 C25.60614189 14.60614189 25.60614189 14.60614189 28 17 C28.22431566 19.67783889 28.32813506 22.24928602 28.3359375 24.9296875 C28.3425943 25.71642853 28.3492511 26.50316956 28.35610962 27.31375122 C28.36624299 28.97981424 28.37092643 30.64591791 28.37060547 32.31201172 C28.37497159 34.85843102 28.41126123 37.40310717 28.44921875 39.94921875 C28.45508826 41.5677024 28.45905676 43.1861943 28.4609375 44.8046875 C28.47530853 45.5652243 28.48967957 46.32576111 28.50448608 47.10934448 C28.47561647 50.45921229 28.32684242 52.55254396 26.32421875 55.29418945 C21.66251465 58.71554728 16.65508004 61.47377032 11.625 64.3125 C10.5009375 64.97056641 9.376875 65.62863281 8.21875 66.30664062 C7.12820312 66.92345703 6.03765625 67.54027344 4.9140625 68.17578125 C3.9235791 68.74208252 2.9330957 69.30838379 1.91259766 69.8918457 C-2.17406766 71.44669682 -5.02923365 70.83581177 -8.99121094 69.15551758 C-9.56645508 68.82189209 -10.14169922 68.4882666 -10.734375 68.14453125 C-11.38647949 67.77223389 -12.03858398 67.39993652 -12.71044922 67.01635742 C-13.38350098 66.61908447 -14.05655273 66.22181152 -14.75 65.8125 C-15.45012207 65.40684814 -16.15024414 65.00119629 -16.87158203 64.58325195 C-18.27053112 63.77071475 -19.66723894 62.95430476 -21.06152344 62.13378906 C-22.76130496 61.13960954 -24.47712384 60.17295511 -26.1953125 59.2109375 C-27.07960938 58.70820312 -27.96390625 58.20546875 -28.875 57.6875 C-29.63554688 57.25824219 -30.39609375 56.82898438 -31.1796875 56.38671875 C-33.40949489 54.68804574 -33.99306331 53.62410519 -35 51 C-35.39993699 46.44038227 -35.37161326 41.87587534 -35.37060547 37.30102539 C-35.37497948 35.07295327 -35.41132311 32.84686267 -35.44921875 30.61914062 C-35.45508754 29.19531924 -35.45905652 27.77148849 -35.4609375 26.34765625 C-35.46915527 25.05867432 -35.47737305 23.76969238 -35.48583984 22.44165039 C-34.91640718 18.40783517 -33.8617433 16.84425098 -31 14 C-29.20410156 12.68554688 -29.20410156 12.68554688 -27.390625 11.71875 C-26.72216553 11.35386475 -26.05370605 10.98897949 -25.36499023 10.61303711 C-24.66704346 10.24573486 -23.96909668 9.87843262 -23.25 9.5 C-21.8075949 8.72190087 -20.36617516 7.94197215 -18.92578125 7.16015625 C-18.24209473 6.79035645 -17.5584082 6.42055664 -16.85400391 6.03955078 C-14.62795269 4.79139091 -12.53499999 3.38961538 -10.4375 1.9375 C-6.32616894 -0.37979569 -4.64359904 -0.86575575 0 0 Z " fill="#F8564E" transform="translate(103,64)"/>
<path d="M0 0 C0 0.33 0 0.66 0 1 C-0.94875 1.28875 -1.8975 1.5775 -2.875 1.875 C-6.05211578 2.76825109 -6.05211578 2.76825109 -8 5 C-8.33320576 8.07643126 -8.33320576 8.07643126 -8.31884766 11.74462891 C-8.32889328 12.43742447 -8.3389389 13.13022003 -8.34928894 13.8440094 C-8.38022553 16.13818518 -8.39718476 18.43224373 -8.4140625 20.7265625 C-8.43276577 22.31555192 -8.45233854 23.90453133 -8.4727478 25.49349976 C-8.52416409 29.67901718 -8.56373877 33.86456683 -8.60089111 38.05023193 C-8.64087143 42.32002803 -8.69199093 46.58968895 -8.7421875 50.859375 C-8.83905915 59.23949113 -8.92342772 67.61967393 -9 76 C-9.33 76 -9.66 76 -10 76 C-10.09267419 66.68151584 -10.1637516 57.36319028 -10.20724869 48.04434586 C-10.22812503 43.71722386 -10.25644312 39.39041712 -10.30175781 35.06347656 C-10.34521452 30.88782401 -10.36913675 26.7124747 -10.37950897 22.53661346 C-10.38690072 20.9433693 -10.40133521 19.35014176 -10.42292023 17.75702667 C-10.45195327 15.52547831 -10.45595626 13.29518336 -10.45410156 11.06347656 C-10.46298401 9.79328674 -10.47186646 8.52309692 -10.48101807 7.2144165 C-10 4 -10 4 -8.17474365 1.57415771 C-5.33184586 -0.48363401 -3.42897759 -0.31172524 0 0 Z " fill="#B63E39" transform="translate(30,68)"/>
</svg>
