<?xml version="1.0" encoding="UTF-8"?>
<svg version="1.1" xmlns="http://www.w3.org/2000/svg" width="256" height="256">
<path d="M0 0 C5.70313229 0.49816004 11.08732073 1.64070404 16.61889648 3.07519531 C17.86166383 3.39119957 17.86166383 3.39119957 19.12953758 3.71358776 C21.87794566 4.41373897 24.62450317 5.12088057 27.37109375 5.828125 C29.33678779 6.33055928 31.30258521 6.83258926 33.26847839 7.33424377 C38.56103497 8.68620102 43.851968 10.04441266 49.14258575 11.40393448 C53.54327256 12.53393942 57.94490074 13.66025223 62.34653473 14.78656101 C95.50205368 23.27120199 128.63814887 31.83130003 161.75952148 40.44824219 C162.96711073 40.76229964 162.96711073 40.76229964 164.19909573 41.08270168 C167.91312629 42.04861517 171.62698807 43.01516148 175.34037781 43.98353577 C180.72168134 45.38454151 186.1016249 46.78494223 191.50262451 48.10824585 C192.24239721 48.29010531 192.98216991 48.47196478 193.74435997 48.65933514 C195.17200894 49.00907614 196.60041319 49.35575197 198.02964211 49.69897938 C202.88964467 50.88964467 202.88964467 50.88964467 204 52 C203.50183996 57.70313229 202.35929596 63.08732073 200.92480469 68.61889648 C200.71413518 69.44740805 200.50346567 70.27591961 200.28641224 71.12953758 C199.58626103 73.87794566 198.87911943 76.62450317 198.171875 79.37109375 C197.66944072 81.33678779 197.16741074 83.30258521 196.66575623 85.26847839 C195.31379898 90.56103497 193.95558734 95.851968 192.59606552 101.14258575 C191.46606058 105.54327256 190.33974777 109.94490074 189.21343899 114.34653473 C180.72879801 147.50205368 172.16869997 180.63814887 163.55175781 213.75952148 C163.34238618 214.56458098 163.13301455 215.36964048 162.91729832 216.19909573 C161.95138483 219.91312629 160.98483852 223.62698807 160.01646423 227.34037781 C158.61545849 232.72168134 157.21505777 238.1016249 155.89175415 243.50262451 C155.70989469 244.24239721 155.52803522 244.98216991 155.34066486 245.74435997 C154.99092386 247.17200894 154.64424803 248.60041319 154.30102062 250.02964211 C153.11035533 254.88964467 153.11035533 254.88964467 152 256 C146.29686771 255.50183996 140.91267927 254.35929596 135.38110352 252.92480469 C134.55259195 252.71413518 133.72408039 252.50346567 132.87046242 252.28641224 C130.12205434 251.58626103 127.37549683 250.87911943 124.62890625 250.171875 C122.66321221 249.66944072 120.69741479 249.16741074 118.73152161 248.66575623 C113.43896503 247.31379898 108.148032 245.95558734 102.85741425 244.59606552 C98.45672744 243.46606058 94.05509926 242.33974777 89.65346527 241.21343899 C56.49794632 232.72879801 23.36185113 224.16869997 -9.75952148 215.55175781 C-10.56458098 215.34238618 -11.36964048 215.13301455 -12.19909573 214.91729832 C-15.91312629 213.95138483 -19.62698807 212.98483852 -23.34037781 212.01646423 C-28.72168134 210.61545849 -34.1016249 209.21505777 -39.50262451 207.89175415 C-40.24239721 207.70989469 -40.98216991 207.52803522 -41.74435997 207.34066486 C-43.17200894 206.99092386 -44.60041319 206.64424803 -46.02964211 206.30102062 C-50.88964467 205.11035533 -50.88964467 205.11035533 -52 204 C-51.50183996 198.29686771 -50.35929596 192.91267927 -48.92480469 187.38110352 C-48.71413518 186.55259195 -48.50346567 185.72408039 -48.28641224 184.87046242 C-47.58626103 182.12205434 -46.87911943 179.37549683 -46.171875 176.62890625 C-45.66944072 174.66321221 -45.16741074 172.69741479 -44.66575623 170.73152161 C-43.31379898 165.43896503 -41.95558734 160.148032 -40.59606552 154.85741425 C-39.46606058 150.45672744 -38.33974777 146.05509926 -37.21343899 141.65346527 C-28.72879801 108.49794632 -20.16869997 75.36185113 -11.55175781 42.24047852 C-11.34238618 41.43541902 -11.13301455 40.63035952 -10.91729832 39.80090427 C-9.95138483 36.08687371 -8.98483852 32.37301193 -8.01646423 28.65962219 C-6.61545849 23.27831866 -5.21505777 17.8983751 -3.89175415 12.49737549 C-3.70989469 11.75760279 -3.52803522 11.01783009 -3.34066486 10.25564003 C-2.99092386 8.82799106 -2.64424803 7.39958681 -2.30102062 5.97035789 C-1.11035533 1.11035533 -1.11035533 1.11035533 0 0 Z M61 104 C59.71206079 108.90969735 58.43049698 113.82099804 57.15478516 118.73388672 C56.72000695 120.40458926 56.28349709 122.07484217 55.84521484 123.74462891 C55.21515236 126.14629565 54.59135681 128.54951618 53.96875 130.953125 C53.77188599 131.69806213 53.57502197 132.44299927 53.37219238 133.21051025 C52.49462945 136.62178356 52 139.45020258 52 143 C56.90969735 144.28793921 61.82099804 145.56950302 66.73388672 146.84521484 C68.40458926 147.27999305 70.07484217 147.71650291 71.74462891 148.15478516 C74.14629565 148.78484764 76.54951618 149.40864319 78.953125 150.03125 C79.69806213 150.22811401 80.44299927 150.42497803 81.21051025 150.62780762 C84.62178356 151.50537055 87.45020258 152 91 152 C92.28793921 147.09030265 93.56950302 142.17900196 94.84521484 137.26611328 C95.27999305 135.59541074 95.71650291 133.92515783 96.15478516 132.25537109 C96.78484764 129.85370435 97.40864319 127.45048382 98.03125 125.046875 C98.22811401 124.30193787 98.42497803 123.55700073 98.62780762 122.78948975 C99.50537055 119.37821644 100 116.54979742 100 113 C95.09030265 111.71206079 90.17900196 110.43049698 85.26611328 109.15478516 C83.59541074 108.72000695 81.92515783 108.28349709 80.25537109 107.84521484 C77.85370435 107.21515236 75.45048382 106.59135681 73.046875 105.96875 C72.30193787 105.77188599 71.55700073 105.57502197 70.78948975 105.37219238 C67.37821644 104.49462945 64.54979742 104 61 104 Z " fill="#E2231A" transform="translate(52,0)"/>
</svg>
