<?xml version="1.0" standalone="no"?>
<!DOCTYPE svg PUBLIC "-//W3C//DTD SVG 20010904//EN"
 "http://www.w3.org/TR/2001/REC-SVG-20010904/DTD/svg10.dtd">
<svg version="1.0" xmlns="http://www.w3.org/2000/svg"
 width="640.000000pt" height="189.000000pt" viewBox="0 0 640.000000 189.000000"
 preserveAspectRatio="xMidYMid meet">

<g transform="translate(0.000000,189.000000) scale(0.100000,-0.100000)"
fill="#FF0000" stroke="none">
<path d="M3154 1636 c4 -69 5 -126 1 -126 -3 0 -14 4 -23 9 -9 4 -71 5 -137 0
-66 -4 -235 -13 -375 -19 -140 -5 -271 -13 -291 -16 -39 -6 -44 1 -76 96 -8
25 -18 49 -22 53 -6 6 -684 -213 -806 -259 -8 -3 -25 41 -51 131 l-39 136 -55
-6 c-30 -3 -82 -10 -115 -15 -108 -17 -422 -62 -550 -80 -99 -14 -265 -39
-440 -66 -22 -3 -42 -8 -44 -10 -2 -2 1 -65 8 -141 10 -124 19 -242 51 -668 5
-71 13 -174 16 -227 l7 -97 56 -20 c131 -45 434 -152 525 -185 55 -20 101 -36
102 -36 2 0 -6 25 -17 57 -27 78 -23 78 17 0 31 -60 38 -68 58 -63 13 3 88 15
167 26 79 11 167 24 194 29 28 5 68 12 90 15 l41 6 19 -50 c11 -28 25 -50 31
-50 6 0 155 43 330 96 288 86 345 103 394 115 11 3 13 -5 11 -33 l-3 -38 44 0
c24 0 142 6 263 14 716 47 699 47 703 18 4 -25 13 -26 110 -13 85 13 213 29
277 36 28 3 79 10 115 15 165 23 165 23 181 -6 l14 -27 120 7 c66 4 165 9 220
12 55 2 177 9 270 15 158 10 172 13 204 37 36 27 49 26 176 -13 22 -7 60 -18
85 -25 25 -6 63 -18 85 -25 100 -33 95 -35 143 60 l44 86 46 -35 c26 -18 125
-88 221 -155 153 -108 175 -120 191 -109 10 7 98 74 195 148 201 153 251 191
359 273 42 31 76 59 76 61 0 6 -134 77 -387 206 -123 63 -223 116 -223 119 1
3 106 105 234 226 129 121 235 223 235 227 1 3 -18 11 -41 16 -109 25 -490
121 -584 148 -28 8 -61 14 -73 14 -15 0 -71 -45 -163 -130 -78 -71 -145 -130
-150 -130 -4 0 -23 29 -40 65 -38 76 -16 74 -218 22 -123 -32 -135 -34 -146
-19 -6 10 -43 55 -81 102 l-69 85 -390 3 -389 2 3 64 4 63 -54 6 c-29 4 -156
20 -283 37 -126 17 -265 35 -308 40 -43 5 -83 12 -89 16 -8 5 -9 -28 -4 -120z
m265 -30 c53 -8 150 -22 216 -31 66 -9 121 -18 123 -20 2 -1 6 -218 10 -480
l7 -477 128 1 128 2 -5 -33 c-3 -18 -8 -58 -11 -88 l-6 -56 -262 -23 c-144
-12 -288 -25 -319 -28 l-58 -6 0 32 c0 19 29 89 75 181 l75 149 -28 19 c-15
10 -55 35 -89 56 -54 32 -63 42 -63 66 0 23 11 37 58 74 l59 45 12 141 c7 78
11 143 9 145 -2 1 -40 24 -85 50 -93 53 -88 42 -98 203 -8 107 -20 99 124 78z
m-2134 -216 c19 -63 56 -190 82 -281 l49 -167 -30 -34 c-17 -19 -57 -63 -88
-98 l-58 -63 -132 10 c-73 5 -134 8 -136 7 -2 -1 78 -69 178 -151 335 -272
375 -306 373 -312 -2 -5 -359 -61 -483 -76 l-56 -6 -144 296 c-106 217 -148
294 -158 290 -8 -3 -35 -10 -59 -17 -54 -13 -56 7 22 -261 31 -109 55 -200 53
-203 -4 -4 -243 74 -329 107 l-25 10 -18 247 c-10 136 -26 344 -36 462 -9 118
-14 218 -11 221 3 3 186 32 406 63 220 32 418 62 440 66 22 4 60 7 84 7 l43
-2 33 -115z m1963 -67 l153 -88 -6 -60 c-15 -160 -5 -141 -121 -228 -57 -42
-104 -81 -104 -85 0 -4 54 -41 120 -81 66 -41 120 -78 120 -83 0 -18 -141
-289 -153 -293 -6 -2 -136 -11 -287 -20 -151 -8 -311 -18 -355 -20 l-80 -5 80
26 c44 14 82 27 83 29 5 4 -2 23 -172 462 -131 338 -136 354 -136 425 l0 75
313 15 c171 8 330 16 353 16 34 2 64 -12 192 -85z m1425 11 c67 -87 77 -75
-101 -119 -101 -24 -111 -29 -100 -44 7 -9 78 -85 158 -169 80 -85 146 -157
148 -161 1 -4 -56 -86 -128 -181 -94 -123 -128 -175 -119 -181 7 -4 43 -15 81
-25 70 -18 89 -34 41 -34 -16 0 -147 -7 -292 -15 -145 -8 -267 -13 -270 -10
-3 3 0 63 7 133 6 69 9 128 8 130 -2 2 -61 6 -130 9 l-126 6 0 36 c0 20 -7
122 -15 226 -23 292 -25 275 45 383 l59 92 338 0 338 -1 58 -75z m1095 24
c114 -28 209 -52 211 -54 3 -3 -115 -118 -356 -348 -40 -38 -73 -72 -73 -75 0
-3 78 -46 173 -95 94 -49 227 -118 295 -153 l122 -65 -197 -150 c-108 -82
-203 -152 -210 -155 -7 -3 -118 70 -247 161 -130 91 -239 166 -244 166 -4 0
-30 -45 -57 -100 -27 -55 -52 -100 -57 -100 -10 0 -419 117 -451 129 l-27 11
115 153 c63 85 115 157 115 162 0 4 -42 51 -92 104 -158 164 -182 190 -177
195 2 2 109 31 237 64 l232 60 53 -99 c28 -54 54 -99 57 -98 3 0 86 76 185
169 99 93 181 169 183 170 1 0 96 -23 210 -52z m-3825 -506 c15 -52 26 -96 23
-99 -12 -13 -180 -63 -186 -56 -12 15 -62 172 -58 184 5 14 145 68 173 65 15
-1 25 -20 48 -94z"/>
<path d="M571 1193 l-53 -4 5 -47 c4 -26 9 -80 13 -121 l7 -73 45 6 c25 3 91
9 146 12 74 5 104 11 114 22 8 10 12 50 12 114 l0 98 -117 -2 c-65 -1 -142 -3
-172 -5z m159 -128 c0 -11 -12 -15 -50 -15 -46 0 -60 7 -43 23 3 4 26 7 50 7
32 0 43 -4 43 -15z"/>
<path d="M2672 1108 l3 -143 40 2 c22 1 95 7 163 14 l122 12 0 98 c0 94 -1 99
-22 104 -31 7 -291 55 -301 55 -4 0 -6 -64 -5 -142z m197 -7 c24 -15 1 -31
-45 -31 -37 0 -44 3 -44 20 0 16 7 20 38 20 20 0 43 -4 51 -9z"/>
<path d="M2768 783 c-60 -3 -68 -6 -68 -23 0 -19 30 -204 33 -206 1 -1 53 -4
115 -8 l112 -7 0 125 0 126 -62 -2 c-35 -1 -93 -3 -130 -5z m90 -124 c-2 -6
-8 -10 -13 -10 -5 0 -11 4 -13 10 -2 6 4 11 13 11 9 0 15 -5 13 -11z"/>
<path d="M4218 1087 c-123 -9 -128 -10 -123 -31 2 -11 18 -95 35 -186 17 -91
32 -174 35 -185 4 -19 9 -20 87 -13 46 3 112 7 148 7 36 1 70 5 76 9 9 5 6 60
-11 207 -13 110 -24 201 -24 203 -1 4 -86 0 -223 -11z m107 -201 c4 -41 4 -79
1 -85 -4 -6 -20 -11 -35 -11 -26 0 -29 4 -40 57 -20 102 -20 102 56 112 7 0
14 -26 18 -73z"/>
</g>
</svg>
