<svg width="80" height="80" viewBox="0 0 80 80" fill="none" xmlns="http://www.w3.org/2000/svg">
<path d="M16.6667 6.66669C14.0145 6.66669 11.471 7.72026 9.5956 9.59562C7.72024 11.471 6.66667 14.0145 6.66667 16.6667V43.3334C6.66667 45.9855 7.72024 48.5291 9.5956 50.4044C11.471 52.2798 14.0145 53.3334 16.6667 53.3334H63.3333C65.9855 53.3334 68.529 52.2798 70.4044 50.4044C72.2798 48.5291 73.3333 45.9855 73.3333 43.3334V16.6667C73.3333 14.0145 72.2798 11.471 70.4044 9.59562C68.529 7.72026 65.9855 6.66669 63.3333 6.66669H16.6667ZM45 66.6667C44.558 66.6667 44.1341 66.4911 43.8215 66.1785C43.5089 65.866 43.3333 65.442 43.3333 65V58.3334C43.3333 57.8913 43.1577 57.4674 42.8452 57.1548C42.5326 56.8423 42.1087 56.6667 41.6667 56.6667H38.3333C37.8913 56.6667 37.4674 56.8423 37.1548 57.1548C36.8423 57.4674 36.6667 57.8913 36.6667 58.3334V65C36.6667 65.442 36.4911 65.866 36.1785 66.1785C35.866 66.4911 35.442 66.6667 35 66.6667H30C29.1159 66.6667 28.2681 67.0179 27.643 67.643C27.0179 68.2681 26.6667 69.116 26.6667 70C26.6667 70.8841 27.0179 71.7319 27.643 72.357C28.2681 72.9822 29.1159 73.3334 30 73.3334H50C50.8841 73.3334 51.7319 72.9822 52.357 72.357C52.9821 71.7319 53.3333 70.8841 53.3333 70C53.3333 69.116 52.9821 68.2681 52.357 67.643C51.7319 67.0179 50.8841 66.6667 50 66.6667H45Z" fill="#C5C6CA"/>
</svg>
