<svg width="80" height="80" viewBox="0 0 80 80" fill="none" xmlns="http://www.w3.org/2000/svg">
<path fill-rule="evenodd" clip-rule="evenodd" d="M16.6667 13.3333C16.6667 10.6811 17.7202 8.13761 19.5956 6.26225C21.471 4.38688 24.0145 3.33331 26.6667 3.33331H53.3333C55.9855 3.33331 58.529 4.38688 60.4044 6.26225C62.2798 8.13761 63.3333 10.6811 63.3333 13.3333V66.6666C63.3333 69.3188 62.2798 71.8624 60.4044 73.7377C58.529 75.6131 55.9855 76.6666 53.3333 76.6666H26.6667C24.0145 76.6666 21.471 75.6131 19.5956 73.7377C17.7202 71.8624 16.6667 69.3188 16.6667 66.6666V13.3333ZM33.3333 66.6666C33.3333 65.7826 33.6845 64.9347 34.3096 64.3096C34.9348 63.6845 35.7826 63.3333 36.6667 63.3333H43.3333C44.2174 63.3333 45.0652 63.6845 45.6904 64.3096C46.3155 64.9347 46.6667 65.7826 46.6667 66.6666C46.6667 67.5507 46.3155 68.3986 45.6904 69.0237C45.0652 69.6488 44.2174 70 43.3333 70H36.6667C35.7826 70 34.9348 69.6488 34.3096 69.0237C33.6845 68.3986 33.3333 67.5507 33.3333 66.6666ZM26.6667 9.99998C25.7826 9.99998 24.9348 10.3512 24.3096 10.9763C23.6845 11.6014 23.3333 12.4493 23.3333 13.3333V53.3333C23.3333 54.2174 23.6845 55.0652 24.3096 55.6903C24.9348 56.3155 25.7826 56.6666 26.6667 56.6666H53.3333C54.2174 56.6666 55.0652 56.3155 55.6904 55.6903C56.3155 55.0652 56.6667 54.2174 56.6667 53.3333V13.3333C56.6667 12.4493 56.3155 11.6014 55.6904 10.9763C55.0652 10.3512 54.2174 9.99998 53.3333 9.99998H26.6667Z" fill="#C5C6CA"/>
</svg>
